<svg xmlns="http://www.w3.org/2000/svg" width="23" height="21" viewBox="0 0 23 21"><defs><mask id="4lajb" width="2" height="2" x="-1" y="-1"><path fill="#fff" d="M0 0h23v20H0z"/><path d="M18.116 14.169v3.855h-.002l.002.35c-3.824 1.888-10.17 2.426-13.833.01C2.066 16.921-.12 14.013 0 10.334c.113-3.495 2.43-6.624 5.615-8.2 3.663-1.812 9.19-1.47 12.413 1.14L16.13 5.17l-1.23.342.654-1.164c-.94-.924-2.019-1.594-3.206-1.965-1.895-.593-3.642-.266-5.099.43-2.982 1.43-4.747 4.891-4.061 8.551.722 3.856 3.772 6.949 7.772 7.274 1.179.098 2.47.04 3.612-.254.813-.257.807-.334.807-.816v-3.398l-4.006.116 2.062-1.136h5.57zM20-.001h1v2h2v1h-2v2h-1V3h-2V2h2z"/></mask><filter id="4laja" width="43" height="41" x="-10" y="-10" filterUnits="userSpaceOnUse"><feOffset dy="1" in="SourceGraphic" result="FeOffset1043Out"/><feGaussianBlur in="FeOffset1043Out" result="FeGaussianBlur1044Out" stdDeviation="0 0"/></filter></defs><g><g><g filter="url(#4laja)"><path fill="none" d="M18.116 14.169v3.855h-.002l.002.35c-3.824 1.888-10.17 2.426-13.833.01C2.066 16.921-.12 14.013 0 10.334c.113-3.495 2.43-6.624 5.615-8.2 3.663-1.812 9.19-1.47 12.413 1.14L16.13 5.17l-1.23.342.654-1.164c-.94-.924-2.019-1.594-3.206-1.965-1.895-.593-3.642-.266-5.099.43-2.982 1.43-4.747 4.891-4.061 8.551.722 3.856 3.772 6.949 7.772 7.274 1.179.098 2.47.04 3.612-.254.813-.257.807-.334.807-.816v-3.398l-4.006.116 2.062-1.136h5.57zM20-.001h1v2h2v1h-2v2h-1V3h-2V2h2z" mask="url(&quot;#4lajb&quot;)"/><path fill-opacity=".2" d="M18.116 14.169v3.855h-.002l.002.35c-3.824 1.888-10.17 2.426-13.833.01C2.066 16.921-.12 14.013 0 10.334c.113-3.495 2.43-6.624 5.615-8.2 3.663-1.812 9.19-1.47 12.413 1.14L16.13 5.17l-1.23.342.654-1.164c-.94-.924-2.019-1.594-3.206-1.965-1.895-.593-3.642-.266-5.099.43-2.982 1.43-4.747 4.891-4.061 8.551.722 3.856 3.772 6.949 7.772 7.274 1.179.098 2.47.04 3.612-.254.813-.257.807-.334.807-.816v-3.398l-4.006.116 2.062-1.136h5.57zM20-.001h1v2h2v1h-2v2h-1V3h-2V2h2z"/></g><path fill="#fff" d="M18.116 14.169v3.855h-.002l.002.35c-3.824 1.888-10.17 2.426-13.833.01C2.066 16.921-.12 14.013 0 10.334c.113-3.495 2.43-6.624 5.615-8.2 3.663-1.812 9.19-1.47 12.413 1.14L16.13 5.17l-1.23.342.654-1.164c-.94-.924-2.019-1.594-3.206-1.965-1.895-.593-3.642-.266-5.099.43-2.982 1.43-4.747 4.891-4.061 8.551.722 3.856 3.772 6.949 7.772 7.274 1.179.098 2.47.04 3.612-.254.813-.257.807-.334.807-.816v-3.398l-4.006.116 2.062-1.136h5.57zM20-.001h1v2h2v1h-2v2h-1V3h-2V2h2z"/></g></g></svg>