<svg xmlns="http://www.w3.org/2000/svg" width="22" height="19" viewBox="0 0 22 19"><defs><mask id="sh0tb" width="2" height="2" x="-1" y="-1"><path fill="#fff" d="M0 0h22v18H0z"/><path d="M14.964 0c1.748-.03 2.679.611 3.567 1.428.755-.065 1.735-.49 2.313-.786l.561-.31c-.33.9-.777 1.602-1.464 2.136-.153.119-.304.279-.496.354v.012c.98-.01 1.788-.456 2.555-.698v.011c-.403.646-.949 1.301-1.53 1.77l-.705.565c.012 1.046-.016 2.043-.21 2.922-1.127 5.106-4.113 8.573-8.841 10.059-1.698.533-4.442.752-6.387.266-.964-.242-1.836-.514-2.653-.874-.455-.201-.875-.418-1.278-.665L0 15.947c.439.013.952.135 1.442.055.444-.072.88-.053 1.289-.144 1.02-.226 1.927-.524 2.708-.985.379-.223.953-.485 1.222-.807-.507.009-.966-.11-1.343-.244-1.46-.52-2.31-1.475-2.863-2.91.443.048 1.717.164 2.015-.089-.557-.03-1.092-.356-1.475-.597C1.82 9.485.863 8.242.87 6.33l.462.222c.295.125.595.192.947.265.149.031.446.12.617.055h-.022c-.228-.266-.598-.444-.826-.73-.754-.944-1.46-2.397-1.013-4.127A5.3 5.3 0 0 1 1.519.83l.022.011c.088.186.284.321.408.476.385.481.86.914 1.343 1.295C4.94 3.912 6.425 4.71 8.81 5.3a8.54 8.54 0 0 0 2.026.266c-.203-.596-.138-1.56.022-2.136C11.258 1.98 12.13.937 13.41.377a5.396 5.396 0 0 1 1.002-.31l.55-.067z"/></mask><filter id="sh0ta" width="42" height="39" x="-10" y="-10" filterUnits="userSpaceOnUse"><feOffset dy="1" in="SourceGraphic" result="FeOffset1023Out"/><feGaussianBlur in="FeOffset1023Out" result="FeGaussianBlur1024Out" stdDeviation="0 0"/></filter></defs><g><g><g filter="url(#sh0ta)"><path fill="none" d="M14.964 0c1.748-.03 2.679.611 3.567 1.428.755-.065 1.735-.49 2.313-.786l.561-.31c-.33.9-.777 1.602-1.464 2.136-.153.119-.304.279-.496.354v.012c.98-.01 1.788-.456 2.555-.698v.011c-.403.646-.949 1.301-1.53 1.77l-.705.565c.012 1.046-.016 2.043-.21 2.922-1.127 5.106-4.113 8.573-8.841 10.059-1.698.533-4.442.752-6.387.266-.964-.242-1.836-.514-2.653-.874-.455-.201-.875-.418-1.278-.665L0 15.947c.439.013.952.135 1.442.055.444-.072.88-.053 1.289-.144 1.02-.226 1.927-.524 2.708-.985.379-.223.953-.485 1.222-.807-.507.009-.966-.11-1.343-.244-1.46-.52-2.31-1.475-2.863-2.91.443.048 1.717.164 2.015-.089-.557-.03-1.092-.356-1.475-.597C1.82 9.485.863 8.242.87 6.33l.462.222c.295.125.595.192.947.265.149.031.446.12.617.055h-.022c-.228-.266-.598-.444-.826-.73-.754-.944-1.46-2.397-1.013-4.127A5.3 5.3 0 0 1 1.519.83l.022.011c.088.186.284.321.408.476.385.481.86.914 1.343 1.295C4.94 3.912 6.425 4.71 8.81 5.3a8.54 8.54 0 0 0 2.026.266c-.203-.596-.138-1.56.022-2.136C11.258 1.98 12.13.937 13.41.377a5.396 5.396 0 0 1 1.002-.31l.55-.067z" mask="url(&quot;#sh0tb&quot;)"/><path fill-opacity=".2" d="M14.964 0c1.748-.03 2.679.611 3.567 1.428.755-.065 1.735-.49 2.313-.786l.561-.31c-.33.9-.777 1.602-1.464 2.136-.153.119-.304.279-.496.354v.012c.98-.01 1.788-.456 2.555-.698v.011c-.403.646-.949 1.301-1.53 1.77l-.705.565c.012 1.046-.016 2.043-.21 2.922-1.127 5.106-4.113 8.573-8.841 10.059-1.698.533-4.442.752-6.387.266-.964-.242-1.836-.514-2.653-.874-.455-.201-.875-.418-1.278-.665L0 15.947c.439.013.952.135 1.442.055.444-.072.88-.053 1.289-.144 1.02-.226 1.927-.524 2.708-.985.379-.223.953-.485 1.222-.807-.507.009-.966-.11-1.343-.244-1.46-.52-2.31-1.475-2.863-2.91.443.048 1.717.164 2.015-.089-.557-.03-1.092-.356-1.475-.597C1.82 9.485.863 8.242.87 6.33l.462.222c.295.125.595.192.947.265.149.031.446.12.617.055h-.022c-.228-.266-.598-.444-.826-.73-.754-.944-1.46-2.397-1.013-4.127A5.3 5.3 0 0 1 1.519.83l.022.011c.088.186.284.321.408.476.385.481.86.914 1.343 1.295C4.94 3.912 6.425 4.71 8.81 5.3a8.54 8.54 0 0 0 2.026.266c-.203-.596-.138-1.56.022-2.136C11.258 1.98 12.13.937 13.41.377a5.396 5.396 0 0 1 1.002-.31l.55-.067z"/></g><path fill="#fff" d="M14.964 0c1.748-.03 2.679.611 3.567 1.428.755-.065 1.735-.49 2.313-.786l.561-.31c-.33.9-.777 1.602-1.464 2.136-.153.119-.304.279-.496.354v.012c.98-.01 1.788-.456 2.555-.698v.011c-.403.646-.949 1.301-1.53 1.77l-.705.565c.012 1.046-.016 2.043-.21 2.922-1.127 5.106-4.113 8.573-8.841 10.059-1.698.533-4.442.752-6.387.266-.964-.242-1.836-.514-2.653-.874-.455-.201-.875-.418-1.278-.665L0 15.947c.439.013.952.135 1.442.055.444-.072.88-.053 1.289-.144 1.02-.226 1.927-.524 2.708-.985.379-.223.953-.485 1.222-.807-.507.009-.966-.11-1.343-.244-1.46-.52-2.31-1.475-2.863-2.91.443.048 1.717.164 2.015-.089-.557-.03-1.092-.356-1.475-.597C1.82 9.485.863 8.242.87 6.33l.462.222c.295.125.595.192.947.265.149.031.446.12.617.055h-.022c-.228-.266-.598-.444-.826-.73-.754-.944-1.46-2.397-1.013-4.127A5.3 5.3 0 0 1 1.519.83l.022.011c.088.186.284.321.408.476.385.481.86.914 1.343 1.295C4.94 3.912 6.425 4.71 8.81 5.3a8.54 8.54 0 0 0 2.026.266c-.203-.596-.138-1.56.022-2.136C11.258 1.98 12.13.937 13.41.377a5.396 5.396 0 0 1 1.002-.31l.55-.067z"/></g></g></svg>